<svg id="Layer_2" data-name="Layer 2" xmlns="http://www.w3.org/2000/svg" viewBox="0 0 278.11 192.47"><defs><style>.cls-1{fill:#b98f6e;}</style></defs><g id="Logo_Four" data-name="Logo Four"><path class="cls-1" d="M322.7,408.18H442.58a15.39,15.39,0,0,1-11.31,4.93H182.38a15.43,15.43,0,0,1-15.44-15.42V378.83a15.44,15.44,0,0,1,15.44-15.43H431.27a15.44,15.44,0,0,1,13.79,8.49H322.7a9.14,9.14,0,0,0-9.14,9.14v18A9.15,9.15,0,0,0,322.7,408.18Z" transform="translate(-166.94 -274.97)"/><path class="cls-1" d="M183.85,403.32c-4.11-9.35-4.15-18.56.28-27.62a2.23,2.23,0,0,0-.86-2.89l-3-1.89a1.72,1.72,0,0,0-2.49.77c-5,12.14-5.16,23.71-1.13,34.79a2.68,2.68,0,0,0,3.59,1.47l2.12-.91A2.82,2.82,0,0,0,183.85,403.32Z" transform="translate(-166.94 -274.97)"/><path class="cls-1" d="M298.84,403.32c-4.11-9.35-4.14-18.56.29-27.62a2.23,2.23,0,0,0-.86-2.89l-3-1.89a1.71,1.71,0,0,0-2.48.77c-5,12.14-5.16,23.71-1.14,34.79a2.69,2.69,0,0,0,3.6,1.47l2.12-.91A2.81,2.81,0,0,0,298.84,403.32Z" transform="translate(-166.94 -274.97)"/><rect class="cls-1" x="4.04" y="142.76" width="266.57" height="49.71" rx="15.43"/><path class="cls-1" d="M202.83,455.48c-3.91-9.35-4-18.56.28-27.62a2.29,2.29,0,0,0-.83-2.89l-2.89-1.89a1.61,1.61,0,0,0-2.37.77c-4.75,12.14-4.91,23.71-1.08,34.79a2.53,2.53,0,0,0,3.43,1.47l2-.91A2.86,2.86,0,0,0,202.83,455.48Z" transform="translate(-166.94 -274.97)"/><path class="cls-1" d="M407,455.48c3.91-9.35,3.95-18.56-.28-27.62a2.3,2.3,0,0,1,.83-2.89l2.89-1.89a1.6,1.6,0,0,1,2.37.77c4.75,12.14,4.91,23.71,1.08,34.79a2.53,2.53,0,0,1-3.43,1.47l-2-.91A2.86,2.86,0,0,1,407,455.48Z" transform="translate(-166.94 -274.97)"/><path class="cls-1" d="M309.42,315.37a5.5,5.5,0,0,1-8.61-4.55,5.42,5.42,0,0,1,1-3.1,10.49,10.49,0,1,0,7.65,7.65Z" transform="translate(-166.94 -274.97)"/><path class="cls-1" d="M325.09,284.21,313.55,301.8h0l11.54-17.59c-.29-.23-.58-.47-.88-.69a41.91,41.91,0,1,0,11.91,52.53l-19-8.69a21.08,21.08,0,0,1-28.89,7.73l-7,7a5.51,5.51,0,1,1-7.95-7.35l7.3-7.3a21.07,21.07,0,0,1,32.95-25.62h0Z" transform="translate(-166.94 -274.97)"/></g></svg>